<?xml version="1.0" ?><!DOCTYPE svg  PUBLIC '-//W3C//DTD SVG 1.1//EN'  'http://www.w3.org/Graphics/SVG/1.1/DTD/svg11.dtd'><svg height="32px" id="Layer_1" style="enable-background:new 0 0 32 32;" version="1.1" viewBox="0 0 32 32" width="32px" xml:space="preserve" xmlns="http://www.w3.org/2000/svg" xmlns:xlink="http://www.w3.org/1999/xlink"><path d="M30,2H2C0.9,2,0,2.9,0,4v24c0,1.1,0.9,2,2,2h28c1.1,0,2-0.9,2-2V4C32,2.9,31.1,2,30,2z M28,26H14.979l5.702-7.639L28,20.86  V26z M28,16.635l-6-2.05C21,14.234,20.484,14,20,14c-0.703,0-1.25,0.281-2,1.266L9.986,26H4V6h24V16.635z M10,16  c2.209,0,4-1.791,4-4s-1.791-4-4-4s-4,1.791-4,4S7.791,16,10,16z"/></svg>